<?xml version="1.0" encoding="UTF-8"?>
<svg width="1579px" height="1035px" viewBox="0 0 1579 1035" version="1.1" xmlns="http://www.w3.org/2000/svg" xmlns:xlink="http://www.w3.org/1999/xlink">
    <!-- Generator: Sketch 61.2 (89653) - https://sketch.com -->
    <title>Group</title>
    <desc>Created with Sketch.</desc>
    <g id="Page-1" stroke="none" stroke-width="1" fill="none" fill-rule="evenodd" opacity="0.0455264137">
        <g id="Artboard" fill="#8925AE">
            <g id="Group">
                <path d="M1340.34998,408.631332 C1330.66672,341.465008 1302.55404,288.668846 1256.63667,251.805253 C1196.97532,203.382738 1123.57,195.572655 1082.9628,195.572655 C969.575,-7.48962406 735.927417,-0.929142507 712.500186,0.3204747 C377.959327,0.945285256 304.554003,275.235503 288.935849,376.141777 C241.144298,383.327053 174.923325,408.318929 119.63506,453.617411 C64.9715206,498.291087 0,580.453161 0,716.661011 C0,941.591406 170.550242,1023.12867 260.510809,1034.6876 C262.384987,1035 264.259166,1035 265.820981,1035 C285.812218,1035 303.304551,1020.62945 306.116209,1000.63563 C309.23984,979.079805 293.621686,958.773589 271.443907,955.649555 C263.63483,954.712345 81.2147913,926.596046 81.2147913,716.348608 C81.2147913,633.87413 110.264167,567.019818 167.114638,518.2849 C230.21198,463.926721 304.866366,451.430588 318.298369,453.305008 C329.855803,455.179428 341.7256,452.367798 351.096492,445.182521 C360.155022,437.997245 365.777557,427.063128 366.08992,415.504205 C366.714646,401.758459 382.020047,79.6710209 713.437275,79.6710209 C714.374364,79.6710209 715.311453,79.6710209 715.936179,79.6710209 C724.682346,79.0462143 933.965609,69.0493079 1021.11491,253.054867 C1028.61162,268.675033 1045.47923,278.047133 1062.97156,275.860309 C1063.90865,275.860309 1147.30959,266.48821 1204.47204,313.348708 C1238.83198,341.465008 1258.19849,386.138683 1261.63448,445.494925 C1262.88393,465.176334 1278.81445,481.108904 1298.80569,482.983324 C1319.10929,484.857744 1497.78097,506.10117 1497.78097,711.350155 C1497.78097,913.78751 1355.03104,944.090632 1269.75592,944.090632 C1247.26578,944.090632 1229.14872,961.897622 1229.14872,983.765855 C1229.14872,1005.63409 1247.26578,1023.44108 1269.75592,1023.44108 C1419.37784,1023.44108 1579,941.279002 1579,711.037751 C1579.93246,509.85001 1438.43198,429.249952 1340.34998,408.631332 L1340.34998,408.631332 Z" id="Shape"></path>
                <path d="M450,686.5 C450,665.387097 432.823721,648 411.275299,648 L201.724779,648 C180.488692,648 163,665.387097 163,686.5 C163,707.612903 180.176279,725 201.724779,725 L411.275299,725 C432.511425,725 450,707.612903 450,686.5 L450,686.5 Z" id="Shape"></path>
                <path d="M1157.78157,345 L949.242424,345 L847.470328,500.014123 L746.94697,345 L719.474747,345 L519.052399,345 L502.506629,345 C481.902462,345 465.044508,361.876538 465.044508,382.503417 C465.044508,403.130296 481.902462,420.006834 502.506629,420.006834 L556.826705,420.006834 L667.339962,420.006834 C686.383207,420.006834 701.68024,436.883371 701.68024,457.510251 C701.68024,476.887016 687.944129,492.825968 670.461806,494.701139 L362.960227,494.701139 C341.731692,494.701139 324.249369,512.202733 324.249369,533.767198 C324.249369,555.331663 341.419508,572.833257 362.960227,572.833257 L628.629104,572.833257 L722.284407,572.833257 L734.459596,572.833257 C755.063763,572.833257 771.921717,589.709795 771.921717,610.336674 C771.921717,630.963554 755.063763,647.840091 734.459596,647.840091 L604.590909,647.840091 L543.403168,647.840091 C522.174633,647.840091 504.691919,665.341686 504.691919,686.593622 C504.691919,707.845558 521.862058,725.347153 543.403168,725.347153 L579.928346,725.347153 L672.95928,725.347153 C693.563447,725.347153 710.421402,742.22369 710.421402,762.850569 C710.421402,783.477449 693.563447,800.353986 672.95928,800.353986 L564.319129,800.353986 L553.704861,800.353986 L235.276792,800.353986 C215.921323,800.353986 200,817.855581 200,839.107517 C200,860.359453 215.921323,877.861048 235.276792,877.861048 L524.359533,877.861048 L564.319129,877.861048 L593.040088,877.861048 C613.644255,877.861048 630.50221,894.737585 630.50221,915.364465 C630.50221,935.991344 613.644255,952.867882 593.040088,952.867882 L495.950758,952.867882 L403.544192,952.867882 C382.315657,952.867882 364.833333,970.369476 364.833333,991.933941 C364.833333,1013.49841 382.003472,1031 403.544192,1031 L466.293245,1031 L613.019886,1031 L684.822285,1031 L844.660669,802.854214 L984.831439,1028.18724 L1189,1028.18724 L947.369318,655.340774 L1157.78157,345 L1157.78157,345 Z" id="Shape"></path>
            </g>
        </g>
    </g>
</svg>